<svg class="icon" viewBox="0 0 1024 1024" version="1.1" xmlns="http://www.w3.org/2000/svg" p-id="3562" height="128" width="128"><path d="M783.616 693.76a20.736 20.736 0 0 0-4.352-28.16 456.704 456.704 0 0 0-150.016-72.192 302.08 302.08 0 1 0-239.616 0 453.376 453.376 0 0 0-332.8 393.984 20.736 20.736 0 0 0 18.432 22.528H76.8a20.48 20.48 0 0 0 20.224-18.432 414.72 414.72 0 0 1 657.92-293.376 20.48 20.48 0 0 0 28.672-4.352zM248.32 315.648a261.12 261.12 0 1 1 261.12 261.12 261.632 261.632 0 0 1-261.12-261.12z" fill="#222222" p-id="3563"></path><path d="M605.44 763.648a20.48 20.48 0 0 0 20.48 20.48h317.44a20.48 20.48 0 1 0 0-40.96h-317.44a20.48 20.48 0 0 0-20.48 20.48zM943.36 844.8h-317.44a20.48 20.48 0 0 0 0 40.96h317.44a20.48 20.48 0 0 0 0-40.96zM943.36 947.2h-317.44a20.48 20.48 0 0 0 0 40.96h317.44a20.48 20.48 0 0 0 0-40.96z" fill="#222222" p-id="3564"></path></svg>