<svg class="icon" viewBox="0 0 1024 1024" version="1.1" xmlns="http://www.w3.org/2000/svg" p-id="2393" height="128" width="128"><path d="M511.317455 613.332896l-7.259334-7.30436c-0.411369-0.414439-41.660842-42.083467-82.303494-96.698343-55.324026-74.345242-83.376942-136.27471-83.376942-184.068226 0-55.050804 17.508769-101.744265 50.634214-135.032416 31.100322-31.252795 74.534554-48.463782 122.304534-48.463782 47.768957 0 91.204212 17.210987 122.304534 48.463782 33.125445 33.288151 50.634214 79.981612 50.634214 135.032416 0 47.794539-28.051893 109.724007-83.376942 184.068226-40.642652 54.614875-81.891102 96.28288-82.303494 96.698343L511.317455 613.332896zM511.317455 162.231895c-91.199095 0-152.472624 65.516156-152.472624 163.02905 0 91.349521 121.238248 225.692229 152.472624 258.780835 31.234375-33.088606 152.472624-167.431314 152.472624-258.780835C663.790078 227.749074 602.515526 162.231895 511.317455 162.231895zM511.441275 330.703911c-28.212552 0-51.16531-22.952758-51.16531-51.16531s22.952758-51.16531 51.16531-51.16531c28.212552 0 51.16531 22.952758 51.16531 51.16531S539.653827 330.703911 511.441275 330.703911zM511.441275 248.839415c-16.927531 0-30.699186 13.771655-30.699186 30.699186s13.771655 30.699186 30.699186 30.699186 30.699186-13.771655 30.699186-30.699186S528.368806 248.839415 511.441275 248.839415zM205.406207 569.504692c28.385491-13.694907 56.770981-27.389814 85.156472-41.083697 4.019547-1.939165 8.03807-3.87833 12.057617-5.817496 5.972015-2.88163 7.563256-11.401678 4.405333-16.800641-3.569292-6.101975-10.806113-7.297197-16.800641-4.405333-28.385491 13.694907-56.770981 27.389814-85.156472 41.083697-4.019547 1.939165-8.03807 3.87833-12.057617 5.817496-5.972015 2.88163-7.563256 11.401678-4.405333 16.800641C192.174857 571.201333 199.411679 572.396555 205.406207 569.504692L205.406207 569.504692zM186.92939 558.901193c0 30.613228 0 61.225433 0 91.838661 0 48.592718 0 97.18646 0 145.779178 0 11.18576 0 22.372543 0 33.558303 0 15.802918 24.559349 15.8285 24.559349 0 0-30.613228 0-61.225433 0-91.838661 0-48.592718 0-97.18646 0-145.779178 0-11.18576 0-22.372543 0-33.558303C211.488739 543.098275 186.92939 543.072693 186.92939 558.901193L186.92939 558.901193zM202.473411 841.918012c24.77015-8.449439 49.541323-16.899902 74.311473-25.349341 39.136346-13.350053 78.272691-26.701129 117.41006-40.051181 9.089006-3.100618 18.176988-6.201236 27.265994-9.30083 6.27389-2.140757 10.409071-8.436136 8.576329-15.105023-1.679245-6.111185-8.800433-10.727319-15.105023-8.576329-24.77015 8.449439-49.541323 16.899902-74.311473 25.349341-39.136346 13.350053-78.272691 26.700105-117.41006 40.051181-9.089006 3.100618-18.176988 6.201236-27.265994 9.30083-6.27389 2.140757-10.409071 8.436136-8.576329 15.105023C189.047634 839.452867 196.168822 844.069001 202.473411 841.918012L202.473411 841.918012zM411.998425 765.979482c22.813588 9.67843 45.6282 19.357883 68.441788 29.036313 36.368302 15.429411 72.737628 30.858822 109.106953 46.287209 8.355295 3.544733 16.71059 7.089465 25.065885 10.634198 6.099928 2.587941 13.154601 1.828648 16.800641-4.405333 3.01466-5.15337 1.734504-14.196327-4.405333-16.800641-22.813588-9.67843-45.6282-19.357883-68.441788-29.036313-36.368302-15.429411-72.737628-30.858822-109.106953-46.287209-8.355295-3.544733-16.71059-7.089465-25.065885-10.634198-6.099928-2.587941-13.154601-1.828648-16.800641 4.405333C404.578432 754.332211 405.859611 763.375168 411.998425 765.979482L411.998425 765.979482zM624.075565 853.17438c22.862707-8.846482 45.725414-17.692964 68.589145-26.539446 36.631292-14.173814 73.263607-28.348652 109.894899-42.522466 8.384971-3.243881 16.768919-6.488785 25.15389-9.732665 6.181793-2.391467 10.460236-8.250918 8.576329-15.105023-1.622964-5.9055-8.886391-10.983145-15.105023-8.576329-22.862707 8.846482-45.725414 17.692964-68.589145 26.539446-36.631292 14.173814-73.263607 28.348652-109.894899 42.522466-8.384971 3.243881-16.768919 6.488785-25.15389 9.732665-6.181793 2.391467-10.460236 8.250918-8.576329 15.105023C610.592482 850.503551 617.856933 855.581196 624.075565 853.17438L624.075565 853.17438zM836.728826 762.539126c0-31.30089 0-62.600757 0-93.901647 0-49.810453 0-99.620905 0-149.431358 0-11.328 0-22.654976 0-33.982976 0-15.802918-24.559349-15.8285-24.559349 0 0 31.30089 0 62.600757 0 93.901647 0 49.810453 0 99.620905 0 149.431358 0 11.328 0 22.654976 0 33.982976C812.169477 778.342044 836.728826 778.36865 836.728826 762.539126L836.728826 762.539126zM821.184805 473.382471c-23.536043 8.925277-47.072085 17.850553-70.608128 26.776853-6.197142 2.350534-10.45205 8.281617-8.576329 15.105023 1.632173 5.940292 8.872065 10.940167 15.105023 8.576329 23.536043-8.925277 47.072085-17.850553 70.608128-26.776853 6.197142-2.350534 10.45205-8.281617 8.576329-15.105023C834.657654 476.019531 827.417763 471.018633 821.184805 473.382471L821.184805 473.382471z" p-id="2394"></path></svg>