<svg class="icon" viewBox="0 0 1024 1024" version="1.1" xmlns="http://www.w3.org/2000/svg" p-id="1364" height="128" width="128"><path d="M0 512C0 794.760533 229.239467 1024 512 1024S1024 794.760533 1024 512 794.760533 0 512 0 0 229.239467 0 512z" fill="#1DB2ED" p-id="1365"></path><path d="M632.331378 818.835911a144.315733 144.315733 0 0 1-108.452978-38.206578 145.339733 145.339733 0 0 1-108.475733 38.206578c-68.858311 0-120.513422-30.287644-120.513423-68.835555a56.433778 56.433778 0 0 1 29.969067-47.149512 164.864 164.864 0 0 1-25.144889-36.499911c-17.908622 17.225956-34.429156 23.415467-50.289778 16.861867-34.4064-16.520533-23.392711-79.507911 0-131.117511a186.891378 186.891378 0 0 1 56.843378-79.507911 91.864178 91.864178 0 0 1 11.013689-45.101511c0-7.7824 1.865956-15.473778 5.506845-22.368711C331.389156 284.990578 412.307911 204.8 523.8784 204.8c111.547733 0 194.195911 80.190578 201.432178 200.317156 2.935467 6.667378 4.778667 13.744356 5.506844 21.003377 7.3728 13.380267 11.286756 28.421689 11.377778 43.690667a185.184711 185.184711 0 0 1 57.1392 79.872c20.320711 50.244267 32.017067 114.619733 0 131.4816-15.1552 8.260267-34.429156 2.730667-51.313778-15.473778-6.826667 12.515556-15.246222 24.098133-25.122133 34.4064a57.821867 57.821867 0 0 1 30.287644 47.149511c-0.341333 39.913244-52.337778 71.588978-120.832 71.588978z" fill="#FFFFFF" p-id="1366"></path></svg>