<svg class="icon" viewBox="0 0 1024 1024" version="1.1" xmlns="http://www.w3.org/2000/svg" p-id="1943" height="128" width="128"><path d="M819.394019 757.743914l0 29.906124L674.492838 787.650037l0-20.455891c66.189492-58.574047 100.361779-102.196567 100.361779-139.099035 0-24.402783-13.117762-41.190121-38.119179-41.190121-17.703197 0-32.356942 11.283997-44.239574 25.02086l-19.837814-19.537985c19.218714-20.73423 39.056528-33.55421 68.343551-33.55421 41.189098 0 67.725474 26.854625 67.725474 67.426669 0 43.322691-34.471093 88.160899-82.059947 133.617184 11.582803-1.215688 25.618471-2.133593 36.603663-2.133593L819.394019 757.743914 819.394019 757.743914zM945.375292 669.583015l0 1.515516c25.937742 6.420223 46.373167 25.937742 46.373167 56.142671 0 40.571021-33.853016 64.376193-75.042113 64.376193-35.387975 0-58.275241-14.035668-73.227792-30.821983l17.086144-22.567995c13.118785 13.417591 29.9051 24.701588 53.092195 24.701588 25.319665 0 42.704614-14.035668 42.704614-37.22174 0-25.001417-15.869433-41.169655-66.509786-41.169655l0-25.937742c44.239574 0 58.893318-16.787338 58.893318-39.355333 0-19.837814-13.118785-32.337499-34.490535-32.637328-17.384949 0.298805-32.018228 8.832156-44.838208 21.352307l-18.301831-21.970384c17.684778-15.869433 38.438451-27.154453 64.376193-27.154453 40.252773 0 68.642356 20.753673 68.642356 57.95597C984.131991 642.72839 969.17944 660.731416 945.375292 669.583015L945.375292 669.583015zM95.938026 871.611288l0-645.506666c0-40.644699 33.073256-73.716932 73.716932-73.716932l622.388133 0c40.041972 0 72.612785 32.57593 72.612785 72.618924l0 247.800759-36.020378 0 0-247.801782c0-20.176528-16.422018-36.585243-36.591383-36.585243L169.654958 188.420347c-20.778232 0-37.684274 16.906042-37.684274 37.684274l0 579.000973 68.609611-44.759413c11.550057-7.522324 24.930809-11.493775 38.70758-11.493775l335.811232 0 0 36.020378L239.288898 784.872784c-6.771217 0-13.356193 1.960655-19.028379 5.659907L95.938026 871.611288z" p-id="1944"></path></svg>