<svg class="icon" viewBox="0 0 1024 1024" version="1.1" xmlns="http://www.w3.org/2000/svg" p-id="7032" height="128" width="128"><path d="M512 1023.874246C229.259228 1023.874246 0.062877 794.677895 0.062877 511.937123 0.062877 229.196351 229.259228 0 512 0c282.740772 0 511.937123 229.196351 511.937123 511.937123 0 282.740772-229.196351 511.937123-511.937123 511.937123z m217.608982-294.274246a305.22386 305.22386 0 0 0 51.810807-69.012211l-318.967017-32.597333 162.699228 170.145684a305.852632 305.852632 0 0 0 104.465965-68.53614zM512.017965 819.756912c29.62414 0 58.278175-4.302596 85.39621-12.153263L394.958596 558.978246l-5.299649 235.367298a306.229895 306.229895 0 0 0 122.368 25.411368zM294.4 729.608982a305.430456 305.430456 0 0 0 68.976281 51.81979l32.606315-318.976-170.127719 162.690246a305.134035 305.134035 0 0 0 68.536141 104.465964zM204.234105 511.982035c0 29.678035 4.275649 58.305123 12.153263 85.459088l248.607439-202.509474-235.349333-5.272702a305.565193 305.565193 0 0 0-25.420351 122.323088z m90.165895-217.617965A307.173053 307.173053 0 0 0 242.526316 363.385263l318.984982 32.606316-162.681263-170.145684a305.637053 305.637053 0 0 0-104.439017 68.518175z m217.617965-90.129965c-29.687018 0-58.33207 4.311579-85.459088 12.135299L629.041404 464.994807l5.299649-235.340351a305.726877 305.726877 0 0 0-122.314106-25.420351z m217.591017 90.129965a305.825684 305.825684 0 0 0-69.003228-51.810807l-32.606315 318.967018 170.136701-162.672281a305.511298 305.511298 0 0 0-68.527158-104.48393z m77.985685 132.185825L558.996211 629.041404l235.322385 5.290666a306.705965 306.705965 0 0 0 13.276071-207.782175z" fill="#61D321" p-id="7033"></path></svg>