<svg class="icon" viewBox="0 0 1024 1024" version="1.1" xmlns="http://www.w3.org/2000/svg" p-id="8300" height="128" width="128"><path d="M512 0C229.2224 0 0 229.2224 0 512s229.2224 512 512 512 512-229.2224 512-512S794.7776 0 512 0z m152.4736 616.2432l-182.8352-14.6432s160.9216-110.08 171.52-122.5216a14.63296 14.63296 0 0 0 0-21.5552L350.3616 460.8l226.3552 30.72s-173.3632 97.6384-186.88 112.64v1.8432c-0.3072 0.3072-0.6144 0.5632-0.9216 0.9216-7.168 7.68-6.7584 19.712 0.9216 26.88l274.9952-12.0832 30.0032 163.84L512 690.1248l-182.8864 95.4368 36.608-200.3968-146.3296-144.128 201.8816-29.2352L512 238.4384l89.6 174.4384 202.9568 29.6448-146.2784 142.6432 6.1952 31.0784z" fill="#FAB619" p-id="8301"></path></svg>