<svg class="icon" viewBox="0 0 1024 1024" version="1.1" xmlns="http://www.w3.org/2000/svg" p-id="5829" height="128" width="128"><path d="M0.000102 512.000051A511.999949 511.999949 0 1 0 512.000051 0.000102 511.713229 511.713229 0 0 0 0.000102 512.000051z" fill="#30CA70" p-id="5830"></path><path d="M630.333479 403.517502a93.870071 93.870071 0 0 1 15.544319 0.86016c-34.539517-60.415994-106.219509-101.03807-189.122541-101.03807-117.452788 0-211.578859 82.943992-211.578859 183.941102a184.319982 184.319982 0 0 0 63.907833 136.447986 29.695997 29.695997 0 0 1 6.912 38.000636l-1.73056 2.59072a6.051839 6.051839 0 0 0 5.181439 9.502719l53.544955-2.59072a127.477747 127.477747 0 0 1 23.316478 1.73056 463.083474 463.083474 0 0 0 60.415994 8.632319 210.145259 210.145259 0 0 0 70.809593-12.093439 150.108145 150.108145 0 0 1-65.628154-120.033268c0.89088-81.182712 76.021752-145.950705 168.427503-145.950705z m-254.750694 7.772159a20.725758 20.725758 0 1 1 20.725758-20.725758 20.479998 20.479998 0 0 1-20.735998 20.725758z m100.17791 0a20.725758 20.725758 0 1 1 20.725758-20.725758 21.012478 21.012478 0 0 1-20.735998 20.725758z" fill="#FFFFFF" p-id="5831"></path><path d="M630.333479 425.10342c-79.452152 0-143.359986 56.135674-143.359985 124.354547 0 69.089273 63.907834 131.266547 143.359985 131.266547a165.765103 165.765103 0 0 0 41.451516-6.041599 58.757114 58.757114 0 0 1 12.953599-1.73056l38.860796 1.73056a3.88096 3.88096 0 0 0 3.45088-6.041599 21.207038 21.207038 0 0 1 4.321279-26.767358 126.412787 126.412787 0 0 0 43.182076-92.405751c-0.86016-69.068793-64.778234-124.364788-144.220146-124.364787zM560.384046 514.048051a15.544318 15.544318 0 1 1 15.544319-15.544318 15.482878 15.482878 0 0 1-15.554559 15.544318z m75.130873 0a15.544318 15.544318 0 1 1 15.544318-15.544318 15.482878 15.482878 0 0 1-15.554558 15.544318z" fill="#FFFFFF" p-id="5832"></path></svg>