<svg class="icon" viewBox="0 0 1024 1024" version="1.1" xmlns="http://www.w3.org/2000/svg" p-id="7873" height="128" width="128"><path d="M512 512m-512 0a512 512 0 1 0 1024 0 512 512 0 1 0-1024 0Z" fill="#53A2FF" p-id="7874"></path><path d="M710.4 296.48l-1.92-1.92c-44.96-44.64-117.6-44.64-162.4 0l-103.52 103.52c-44.64 44.96-44.64 117.6 0 162.56l1.92 1.92c3.68 3.68 7.68 7.04 11.68 10.24l37.92-37.92c-4.48-2.56-8.64-5.76-12.32-9.6l-1.92-1.92c-24.32-24.32-24.32-63.68 0-88l103.68-103.52c24.32-24.32 63.68-24.32 88 0l1.92 1.92c24.32 24.32 24.32 63.68 0 88l-46.72 46.88c8.16 20.16 12 41.44 11.52 62.88l72.48-72.48c44.48-44.96 44.48-117.6-0.32-162.56z m-152.96 149.28c-3.68-3.68-7.68-7.04-11.84-10.24l-37.92 37.92c4.48 2.72 8.64 5.76 12.48 9.6l1.92 1.92c24.32 24.32 24.32 63.68 0 88l-103.52 103.52c-24.32 24.32-63.68 24.32-88 0l-1.92-1.92c-24.32-24.32-24.32-63.68 0-88l46.88-46.72c-8-20-12-41.28-11.68-62.88l-72.48 72.32c-44.64 44.96-44.64 117.6 0 162.56l1.92 1.92c44.96 44.64 117.6 44.64 162.56 0l103.52-103.68c44.64-44.96 44.64-117.6 0-162.56l-1.92-1.76z m0 0" fill="#FFFFFF" p-id="7875"></path></svg>