<svg class="icon" viewBox="0 0 1024 1024" version="1.1" xmlns="http://www.w3.org/2000/svg" p-id="2014" height="128" width="128"><path d="M869.865 46.545a107.706 107.706 0 0 1 107.59 107.567v599.412a107.706 107.706 0 0 1-107.59 107.567h-148.41v8.797a107.683 107.683 0 0 1-107.567 107.567H154.112A107.683 107.683 0 0 1 46.545 869.888V270.476a107.683 107.683 0 0 1 107.567-107.567h148.433v-8.797a107.706 107.706 0 0 1 107.59-107.567h459.73z m-715.73 861.091h459.73a37.841 37.841 0 0 0 37.771-37.748V270.476c0-20.806-16.942-37.749-37.748-37.749H154.135c-20.806 0-37.771 16.943-37.771 37.749v599.412c0 20.83 16.965 37.748 37.771 37.748z m753.501-154.112V154.112c0-20.806-16.965-37.748-37.771-37.748h-459.73c-20.806 0-37.771 16.942-37.771 37.748v8.797h241.524a107.683 107.683 0 0 1 107.567 107.567v520.797h148.41c20.806 0 37.771-16.92 37.771-37.749z m-384-381.16a34.91 34.91 0 0 1 0 69.818H244.364a34.91 34.91 0 0 1 0-69.818h279.272z m0 162.909a34.91 34.91 0 0 1 0 69.818H244.364a34.91 34.91 0 0 1 0-69.818h279.272z m-93.09 162.909a34.91 34.91 0 0 1 0 69.818H244.363a34.91 34.91 0 0 1 0-69.818h186.181z" p-id="2015"></path></svg>