<svg class="icon" viewBox="0 0 1024 1024" version="1.1" xmlns="http://www.w3.org/2000/svg" p-id="3099" height="128" width="128"><path d="M512 384a64 64 0 1 0 0 128 64 64 0 0 0 0-128z m-256 0A64 64 0 1 0 256 512a64 64 0 0 0 0-128zM512 0C229.2224 0 0 200.6016 0 448c0 141.4144 75.0592 267.264 192 349.3888V1024l224.256-136.0896c31.0784 5.12 62.976 8.0896 95.744 8.0896 282.7776 0 512-200.5504 512-448C1024 200.6016 794.7776 0 512 0z m0 832c-37.376 0-73.472-4.352-108.1856-11.776l-150.6304 90.624 2.048-148.48C139.6736 692.9408 64 578.1504 64 448c0-212.0704 200.6016-384 448-384s448 171.9296 448 384c0 212.0704-200.6016 384-448 384z m256-448a64 64 0 1 0 0 128 64 64 0 0 0 0-128z" p-id="3100"></path></svg>