<svg class="icon" viewBox="0 0 1028 1024" version="1.1" xmlns="http://www.w3.org/2000/svg" p-id="2641" height="128" width="128"><path d="M514.529287 963.297107v-75.878617c12.285109 0 97.558222-0.722653 109.843331-1.445307 185.721948-18.788991 331.697953-179.94072 331.697954-376.50247 0-208.84686-164.764996-378.67043-367.830628-378.670431-203.065632 0-367.830628 169.823571-367.830629 378.670431H146.698659c0-250.760762 197.284404-454.549047 440.818631-454.549048s440.818631 203.065632 440.818631 454.549048c0 237.030346-176.327452 431.424135-401.072689 452.381087-12.285109 0.722653-99.003529 1.445307-112.733945 1.445307zM514.529287 887.41849c20.234298 0 36.855328 16.62103 36.855328 37.577981 0 20.956951-16.62103 37.577982-36.855328 37.577982s-36.855328-16.62103-36.855328-37.577982c0-20.234298 16.62103-37.577982 36.855328-37.577981zM0 508.748059h367.830628l-184.276641 227.635851L0 508.748059z" p-id="2642"></path></svg>