<svg class="icon" viewBox="0 0 1024 1024" version="1.1" xmlns="http://www.w3.org/2000/svg" p-id="4884" height="128" width="128"><path d="M537.238824 343.328439c0.048095-0.789992 0.080841-1.584078 0.080841-2.38635V163.196873l136.65231 82.779331c14.458293 14.45113 37.902238 14.45113 52.360532 0 14.458293-14.462387 14.458293-37.906332 0-52.357462L530.687618 75.102489c-7.494695-7.498788-17.405415-11.098779-27.228132-10.821464-10.217712-0.277316-20.523429 3.471055-28.321022 11.264555l-202.184839 125.065414c-15.059997 15.051811-15.059997 39.480176 0 54.53608 15.059997 15.06716 39.480176 15.06716 54.540174 0l132.695185-82.07018v167.867242c0 0.802272 0.032746 1.596358 0.080841 2.38635C308.036655 362.27086 190.226482 492.103858 190.226482 649.464815c0 170.398902 138.130987 308.526819 308.526819 308.526819s308.526819-138.127917 308.526819-308.526819c0-157.360957-117.810173-287.193954-270.041296-306.136376zM498.753301 880.859929c-127.795595 0-231.395114-103.591333-231.395114-231.395114 0-127.788431 103.59952-231.391021 231.395114-231.391021S730.148415 521.677407 730.148415 649.464815c0 127.803781-103.59952 231.395114-231.395114 231.395114z" fill="#1E9EDC" p-id="4885"></path></svg>